<?xml version="1.0" encoding="UTF-8" standalone="no"?>
<!-- Created with Inkscape (http://www.inkscape.org/) -->

<svg
   xmlns:dc="http://purl.org/dc/elements/1.1/"
   xmlns:cc="http://creativecommons.org/ns#"
   xmlns:rdf="http://www.w3.org/1999/02/22-rdf-syntax-ns#"
   xmlns:svg="http://www.w3.org/2000/svg"
   xmlns="http://www.w3.org/2000/svg"
   xmlns:sodipodi="http://sodipodi.sourceforge.net/DTD/sodipodi-0.dtd"
   xmlns:inkscape="http://www.inkscape.org/namespaces/inkscape"
   sodipodi:docname="D-cubed Logo.svg"
   inkscape:version="0.92.4 (5da689c313, 2019-01-14)"
   id="svg8"
   version="1.1"
   viewBox="0 0 30 30"
   height="30mm"
   width="30mm"
   inkscape:export-filename="C:\Users\Detailer\Documents\GitHub\DBWebsiteGatsby\src\images\D-cubed Logo white shadow.png"
   inkscape:export-xdpi="433.49335"
   inkscape:export-ydpi="433.49335">
  <defs
     id="defs2">
    <filter
       inkscape:collect="always"
       style="color-interpolation-filters:sRGB"
       id="filter8224"
       x="-0.069611244"
       width="1.1392225"
       y="-0.074558526"
       height="1.1491171">
      <feGaussianBlur
         inkscape:collect="always"
         stdDeviation="0.67724429"
         id="feGaussianBlur8226" />
    </filter>
  </defs>
  <sodipodi:namedview
     id="base"
     pagecolor="#7c91ff"
     bordercolor="#666666"
     borderopacity="1.0"
     inkscape:pageopacity="0"
     inkscape:pageshadow="2"
     inkscape:zoom="4"
     inkscape:cx="106.74914"
     inkscape:cy="70.220794"
     inkscape:document-units="mm"
     inkscape:current-layer="layer6"
     showgrid="true"
     inkscape:window-width="1920"
     inkscape:window-height="1018"
     inkscape:window-x="-8"
     inkscape:window-y="-8"
     inkscape:window-maximized="1"
     inkscape:snap-global="true"
     inkscape:pagecheckerboard="true"
     inkscape:snap-bbox="true"
     inkscape:snap-grids="false"
     inkscape:snap-bbox-midpoints="true">
    <inkscape:grid
       type="xygrid"
       id="grid1061"
       spacingx="0.13229167"
       spacingy="0.13229167"
       visible="false" />
  </sodipodi:namedview>
  <metadata
     id="metadata5">
    <rdf:RDF>
      <cc:Work
         rdf:about="">
        <dc:format>image/svg+xml</dc:format>
        <dc:type
           rdf:resource="http://purl.org/dc/dcmitype/StillImage" />
        <dc:title />
      </cc:Work>
    </rdf:RDF>
  </metadata>
  <g
     inkscape:groupmode="layer"
     id="layer6"
     inkscape:label="shadows"
     style="display:inline"
     transform="translate(0,-267)">
    <path
       inkscape:connector-curvature="0"
       style="color:#000000;font-style:normal;font-variant:normal;font-weight:normal;font-stretch:normal;font-size:medium;line-height:normal;font-family:sans-serif;font-variant-ligatures:normal;font-variant-position:normal;font-variant-caps:normal;font-variant-numeric:normal;font-variant-alternates:normal;font-feature-settings:normal;text-indent:0;text-align:start;text-decoration:none;text-decoration-line:none;text-decoration-style:solid;text-decoration-color:#000000;letter-spacing:normal;word-spacing:normal;text-transform:none;writing-mode:lr-tb;direction:ltr;text-orientation:mixed;dominant-baseline:auto;baseline-shift:baseline;text-anchor:start;white-space:normal;shape-padding:0;clip-rule:nonzero;display:inline;overflow:visible;visibility:visible;opacity:1;isolation:auto;mix-blend-mode:normal;color-interpolation:sRGB;color-interpolation-filters:linearRGB;solid-color:#000000;solid-opacity:1;vector-effect:none;fill:#000000;fill-opacity:0.60606061;fill-rule:nonzero;stroke:none;stroke-width:0.15000001;stroke-linecap:square;stroke-linejoin:miter;stroke-miterlimit:4;stroke-dasharray:none;stroke-dashoffset:0;stroke-opacity:1;filter:url(#filter8224);color-rendering:auto;image-rendering:auto;shape-rendering:auto;text-rendering:auto;enable-background:accumulate"
       d="m 25.324571,271.64173 c -0.76822,0 -1.50283,0.30832 -2.04483,0.85164 v -0.003 l -0.53898,0.53535 1.41181,1.41179 0.53536,-0.53898 c 0.16814,-0.16878 0.39725,-0.2627 0.63664,-0.26355 0.50538,0 0.90228,0.39484 0.90228,0.90022 0,0.50535 -0.3969,0.90278 -0.90228,0.90278 h -1.23248 v 1.99213 h 1.23248 c 0.50538,0 0.90228,0.39693 0.90228,0.90226 0,0.50474 -0.39579,0.89918 -0.90019,0.90021 -0.23871,-2e-5 -0.46739,-0.0947 -0.63667,-0.26355 l -0.53742,-0.53898 -1.40819,1.41025 0.53536,0.53692 c 0.54237,0.54248 1.27698,0.84945 2.04483,0.84955 1.59316,0 2.89647,-1.30122 2.89647,-2.8944 0,-0.7329 -0.33988,-1.37936 -0.82216,-1.89858 0.48228,-0.51924 0.82132,-1.16575 0.82216,-1.89859 0,-1.59316 -1.30331,-2.89441 -2.89647,-2.89441 z m 0,0.75965 h 0.003 c 1.18065,0 2.13474,0.95384 2.13474,2.13476 0,0.62111 -0.29469,1.19951 -0.77928,1.60972 l -0.34211,0.28888 0.34211,0.28937 c 0.48461,0.41024 0.77862,0.98814 0.77928,1.6092 0,1.18094 -0.95409,2.1337 -2.13474,2.13476 -0.56605,-8e-5 -1.10927,-0.22444 -1.51,-0.62529 l 0.33591,-0.33589 v 0.003 c 0.31102,0.31025 0.73218,0.48466 1.172,0.48472 0.91326,0 1.66193,-0.74708 1.66193,-1.66037 0,-0.91324 -0.74867,-1.66034 -1.66193,-1.66034 h -0.47433 v -0.47646 h 0.47438 c 0.91326,0 1.66192,-0.7466 1.66192,-1.65987 0,-0.91326 -0.74866,-1.66036 -1.66192,-1.66036 -0.43948,0 -0.86067,0.1765 -1.172,0.48837 h -0.003 l -0.33383,-0.33592 c 0.40003,-0.40098 0.94234,-0.6259 1.50792,-0.62682 z m -20.4530096,3.03911 v 1.00044 7.99952 9.00048 h 8.9999696 c 4.95874,0 8.99998,-4.04177 8.99998,-9.00048 0,-4.95872 -4.04124,-8.99996 -8.99998,-8.99996 z m 1.99988,2.00038 h 7.0000896 c 3.87783,0 7.0001,3.12174 7.0001,6.99958 0,3.87784 -3.12227,7.00008 -7.0001,7.00008 H 6.8714414 v -7.00008 z m 1.99988,1.99988 v 0.99994 3.99976 5.0002 h 5.0002096 c 2.7496,0 4.99969,-2.25063 4.99969,-5.0002 3e-5,-2.74961 -2.25009,-4.9997 -4.99969,-4.9997 z m 1.9998796,1.99988 h 3.00033 c 1.66872,0 2.99981,1.33112 2.99981,2.99982 0,1.6687 -1.33111,3.00032 -2.99981,3.00032 h -3.00033 v -3.00032 z"
       id="path4770-4-2-1-6-7-3-2" />
  </g>
  <g
     inkscape:groupmode="layer"
     id="layer1"
     inkscape:label="Lines">
    <path
       style="color:#000000;font-style:normal;font-variant:normal;font-weight:normal;font-stretch:normal;font-size:medium;line-height:normal;font-family:sans-serif;font-variant-ligatures:normal;font-variant-position:normal;font-variant-caps:normal;font-variant-numeric:normal;font-variant-alternates:normal;font-feature-settings:normal;text-indent:0;text-align:start;text-decoration:none;text-decoration-line:none;text-decoration-style:solid;text-decoration-color:#000000;letter-spacing:normal;word-spacing:normal;text-transform:none;writing-mode:lr-tb;direction:ltr;text-orientation:mixed;dominant-baseline:auto;baseline-shift:baseline;text-anchor:start;white-space:normal;shape-padding:0;clip-rule:nonzero;display:inline;overflow:visible;visibility:visible;opacity:1;isolation:auto;mix-blend-mode:normal;color-interpolation:sRGB;color-interpolation-filters:linearRGB;solid-color:#000000;solid-opacity:1;vector-effect:none;fill:#ffffff;fill-opacity:1;fill-rule:nonzero;stroke:#160908;stroke-width:0.15000001;stroke-linecap:square;stroke-linejoin:miter;stroke-miterlimit:4;stroke-dasharray:none;stroke-dashoffset:0;stroke-opacity:1;color-rendering:auto;image-rendering:auto;shape-rendering:auto;text-rendering:auto;enable-background:accumulate"
       d="m 24.217704,3.3080567 c -0.768218,6.1e-4 -1.502833,0.30832 -2.044832,0.85165 v -0.002 l -0.538983,0.53536 1.411817,1.41179 0.535357,-0.53898 c 0.168143,-0.16878 0.397246,-0.26271 0.636641,-0.26355 0.50538,0 0.902282,0.39483 0.902282,0.90021 0,0.50536 -0.396902,0.90279 -0.902282,0.90279 h -1.232482 v 1.99213 h 1.232482 c 0.50538,0 0.902282,0.3969196 0.902282,0.9022496 0,0.5047507 -0.39579,0.8991907 -0.900192,0.9002207 -0.238707,-3e-5 -0.467386,-0.0947 -0.636667,-0.26355 l -0.537421,-0.53898 -1.408192,1.41025 0.535358,0.53692 c 0.542369,0.54248 1.276985,0.84945 2.044832,0.84955 1.593162,0 2.896473,-1.30122 2.896473,-2.8944107 -7.67e-4,-0.7328896 -0.339884,-1.3793496 -0.822166,-1.8985696 0.482282,-0.51924 0.821319,-1.16575 0.822166,-1.8986 0,-1.59316 -1.303311,-2.89441 -2.896473,-2.89441 z m 0,0.75965 h 0.0021 c 1.18065,0.001 2.134738,0.95385 2.134738,2.13476 -7.15e-4,0.62111 -0.294693,1.19952 -0.779278,1.60973 l -0.342106,0.28887 0.342106,0.28938 c 0.484611,0.41023 0.778616,0.98814 0.779278,1.6091896 0,1.1809407 -0.954088,2.1337107 -2.134738,2.1347707 -0.56605,-8e-5 -1.109266,-0.22445 -1.510003,-0.62529 l 0.335915,-0.33589 v 0.002 c 0.311017,0.31025 0.732181,0.48467 1.171998,0.48472 0.913262,0 1.661927,-0.74708 1.661927,-1.6603707 0,-0.9132296 -0.748665,-1.6603396 -1.661927,-1.6603396 h -0.474372 v -0.47646 h 0.474372 c 0.913262,0 1.661927,-0.7466 1.661927,-1.65986 0,-0.91327 -0.748665,-1.66037 -1.661927,-1.66037 -0.439473,6.4e-4 -0.860663,0.1765 -1.171998,0.48837 h -0.0021 l -0.333824,-0.33592 c 0.400023,-0.40097 0.942339,-0.62589 1.507913,-0.62682 z m -20.4530057,3.03911 v 1.00044 7.9995203 9.00048 h 8.9999607 c 4.958741,0 8.999987,-4.04176 8.999987,-9.00048 0,-4.95871 -4.041246,-8.9999603 -8.999987,-8.9999603 z m 1.9998796,2.00038 h 7.0000811 c 3.877839,0 7.000107,3.1217403 7.000107,6.9995803 0,3.87784 -3.122268,7.00008 -7.000107,7.00008 H 5.7645779 v -7.00008 z m 1.9998796,1.9998803 v 0.99994 3.99976 5.0002 h 5.0002015 c 2.749603,0 4.999699,-2.25062 4.999699,-5.0002 2.6e-5,-2.7496 -2.250096,-4.9997 -4.999699,-4.9997 z m 1.9998798,1.99988 h 3.0003217 c 1.668727,0 2.999819,1.33112 2.999819,2.99982 0,1.6687 -1.331119,3.00032 -2.999819,3.00032 H 9.7643373 v -3.00032 z"
       id="path4770-4-2-1-6-7-3"
       inkscape:connector-curvature="0" />
  </g>
</svg>
